<svg width="32" height="32" viewBox="0 0 32 32" fill="none" xmlns="http://www.w3.org/2000/svg">
<path d="M15.9999 16.0001C19.6818 16.0001 22.6666 13.0153 22.6666 9.33341C22.6666 5.65152 19.6818 2.66675 15.9999 2.66675C12.318 2.66675 9.33325 5.65152 9.33325 9.33341C9.33325 13.0153 12.318 16.0001 15.9999 16.0001Z" stroke="#58D9A5" stroke-width="2"/>
<path d="M22.6666 18.6667H23.1359C24.1107 18.667 25.0518 19.0232 25.7825 19.6685C26.5131 20.3137 26.983 21.2035 27.1039 22.1707L27.6253 26.3361C27.6721 26.7113 27.6387 27.0922 27.5271 27.4536C27.4155 27.8149 27.2284 28.1483 26.9781 28.4318C26.7278 28.7153 26.4201 28.9423 26.0753 29.0977C25.7306 29.2532 25.3567 29.3335 24.9786 29.3334H7.02125C6.64309 29.3335 6.26924 29.2532 5.92451 29.0977C5.57978 28.9423 5.27205 28.7153 5.02175 28.4318C4.77145 28.1483 4.5843 27.8149 4.47272 27.4536C4.36115 27.0922 4.32769 26.7113 4.37458 26.3361L4.89458 22.1707C5.01551 21.203 5.48581 20.3129 6.21703 19.6676C6.94825 19.0223 7.89002 18.6664 8.86525 18.6667H9.33325" stroke="#58D9A5" stroke-width="2" stroke-linecap="round" stroke-linejoin="round"/>
</svg>
