<svg width="50" height="50" viewBox="0 0 50 50" fill="none" xmlns="http://www.w3.org/2000/svg">
<path d="M5.20825 37.252C7.21763 38.3635 21.7614 46.7468 32.1041 40.2854C42.4458 33.8239 41.8749 22.6916 41.8749 17.5895C42.8124 15.627 44.7916 14.6291 44.7916 9.31662C42.8478 11.1125 40.9155 11.7229 38.9947 11.15C37.1135 8.28121 34.5249 7.01141 31.228 7.34266C26.2843 7.83954 24.476 12.6895 25.0083 18.9656C17.3853 22.8197 11.4083 16.1708 8.327 11.15C7.29784 15.1041 6.30617 19.852 8.327 25.1031C9.67492 28.6052 12.9155 31.5645 18.0468 33.9843C12.8458 36.802 8.56659 37.8927 5.20825 37.252Z" stroke="#58D9A5" stroke-width="4" stroke-linejoin="round"/>
</svg>
