<svg width="117" height="69" viewBox="0 0 117 69" fill="none" xmlns="http://www.w3.org/2000/svg">
<path d="M82.875 14.7857C89.5538 14.7857 93.6 16.8557 97.2563 18.7286C100.425 20.355 102.863 21.5872 107.25 21.5872V31.1979C100.571 31.1979 96.525 29.1279 92.8688 27.255C89.7 25.53 87.2625 24.2979 82.875 24.2979C78.6338 24.2979 76.05 25.6779 72.8813 27.255C69.225 29.0786 65.2275 31.1979 58.5 31.1979C51.8155 31.1979 47.8263 29.1543 44.189 27.291L44.1188 27.255C40.95 25.53 38.415 24.2979 34.125 24.2979C29.835 24.2979 27.3 25.6286 24.1313 27.255C20.475 29.0786 16.3313 31.1979 9.75 31.1979V21.6857C14.04 21.6857 16.575 20.355 19.7438 18.7286L19.814 18.6926C23.4513 16.8293 27.4405 14.7857 34.125 14.7857C40.8525 14.7857 44.85 16.905 48.5063 18.7286C51.675 20.4536 54.1125 21.6857 58.5 21.6857C62.7413 21.6857 65.325 20.3057 68.4938 18.7286C72.15 16.8557 76.1963 14.7857 82.875 14.7857Z" fill="#333333"/>
<path d="M68.4938 40.5622C72.15 38.7386 76.2938 36.6193 82.875 36.6193C89.4563 36.6193 93.6 38.6893 97.2563 40.5622C100.425 42.2872 102.863 43.5193 107.25 43.5193V53.13C100.571 53.13 96.525 51.06 92.8688 49.1872C89.7 47.4622 87.2625 46.23 82.875 46.23C78.6338 46.23 76.05 47.61 72.8813 49.1872C69.225 51.0107 65.2275 53.13 58.5 53.13C51.8155 53.13 47.8262 51.0864 44.1889 49.2231L44.1188 49.1872C40.95 47.4622 38.3663 46.23 34.125 46.23C29.8838 46.23 27.3 47.61 24.1313 49.1872C20.475 51.0107 16.3313 53.13 9.75 53.13V43.5193C14.1375 43.5193 16.575 42.2872 19.7438 40.5622C23.4 38.7386 27.3975 36.6193 34.125 36.6193C40.8095 36.6193 44.7988 38.6629 48.4361 40.5262L48.5063 40.5622C51.675 42.2872 54.1125 43.5193 58.5 43.5193C62.8875 43.5193 65.325 42.2872 68.4938 40.5622Z" fill="#333333"/>
</svg>
