<svg width="50" height="50" viewBox="0 0 50 50" fill="none" xmlns="http://www.w3.org/2000/svg">
<path d="M42.9688 5.46875H7.03125C6.16699 5.46875 5.46875 6.16699 5.46875 7.03125V42.9688C5.46875 43.833 6.16699 44.5312 7.03125 44.5312H42.9688C43.833 44.5312 44.5312 43.833 44.5312 42.9688V7.03125C44.5312 6.16699 43.833 5.46875 42.9688 5.46875ZM17.0557 38.7549H11.2598V20.1123H17.0557V38.7549ZM14.1602 17.5635C13.4957 17.5635 12.8462 17.3665 12.2938 16.9973C11.7413 16.6282 11.3108 16.1035 11.0565 15.4897C10.8022 14.8758 10.7357 14.2004 10.8653 13.5487C10.995 12.8971 11.3149 12.2985 11.7847 11.8287C12.2545 11.3588 12.8531 11.0389 13.5048 10.9093C14.1564 10.7797 14.8319 10.8462 15.4457 11.1004C16.0596 11.3547 16.5842 11.7853 16.9534 12.3377C17.3225 12.8902 17.5195 13.5397 17.5195 14.2041C17.5146 16.0596 16.0107 17.5635 14.1602 17.5635ZM38.7549 38.7549H32.9639V29.6875C32.9639 27.5244 32.9248 24.7461 29.9512 24.7461C26.9385 24.7461 26.4746 27.0996 26.4746 29.5312V38.7549H20.6885V20.1123H26.2451V22.6611H26.3232C27.0947 21.1963 28.9844 19.6484 31.8066 19.6484C37.6758 19.6484 38.7549 23.5107 38.7549 28.5303V38.7549Z" fill="#58D9A5"/>
</svg>
