<svg width="71" height="71" viewBox="0 0 71 71" fill="none" xmlns="http://www.w3.org/2000/svg">
<path d="M43.7731 44.2648C47.1478 45.4722 50.6053 45.2582 54.498 44.9588L54.498 42.5633C50.9047 43.4616 47.4271 42.916 44.6128 41.9119C41.7667 40.8937 38.8287 38.8289 35.355 35.3553L24.2304 24.2307L35.3532 24.2307C35.6849 24.231 36.0031 24.0994 36.2379 23.865C36.4726 23.6306 36.6046 23.3126 36.6048 22.9809C36.605 22.6492 36.4735 22.331 36.2391 22.0963C36.1231 21.9801 35.9852 21.8878 35.8335 21.8249C35.6818 21.7619 35.5192 21.7295 35.355 21.7293L21.2129 21.7293C21.0484 21.7291 20.8856 21.7614 20.7336 21.8242C20.5817 21.887 20.4437 21.9792 20.3274 22.0954C20.2111 22.2117 20.1189 22.3498 20.0561 22.5017C19.9933 22.6536 19.9611 22.8165 19.9613 22.9809L19.9613 37.123C19.9614 37.2873 19.9939 37.4499 20.0568 37.6016C20.1198 37.7533 20.212 37.8911 20.3282 38.0072C20.4444 38.1232 20.5824 38.2152 20.7342 38.278C20.886 38.3407 21.0486 38.373 21.2129 38.3729C21.3771 38.3727 21.5397 38.3403 21.6914 38.2773C21.8431 38.2144 21.9809 38.1221 22.097 38.0059C22.3314 37.7712 22.4629 37.453 22.4627 37.1213L22.4627 25.9985L33.5872 37.123C37.1846 40.7205 40.4338 43.0751 43.7731 44.2648Z" fill="#FDFDFD"/>
</svg>
